# xmcd
#
# Track frame offsets: 
#        150
#        23694
#        49021
#        61770
#        79293
#        100259
#        118260
#        138157
#        159176
#        180058
#
# Disc length: 2635 seconds
#
# Revision: 3
# Processed by: cddbd v1.5.2PL0 Copyright (c) Steve Scherf et al.
# Submitted via: ExactAudioCopyFreeDBPlugin 1.0
#
DISCID=6f0a490a
DTITLE=Obtest - Auka seniems dievams
DYEAR=2001
DGENRE=Pagan Metal
TTITLE0=Is sirdies
TTITLE1=Anapus Nemuno
TTITLE2=Auka seniems dievams
TTITLE3=Svarbiausias musis
TTITLE4=Kruvinos pasvaistes
TTITLE5=Griztantys su karo ugnim
TTITLE6=Priesa parklupdyk
TTITLE7=Zirgas parnes mano kuna
TTITLE8=Eime su mumis
TTITLE9=Vardan...
EXTD=
EXTT0=
EXTT1=
EXTT2=
EXTT3=
EXTT4=
EXTT5=
EXTT6=
EXTT7=
EXTT8=
EXTT9=
PLAYORDER=
